# AST/ASF file generated using VICON BodyLanguage
# -----------------------------------------------
:version 1.10
:name VICON
:units
  mass 1.0
  length 0.45
  angle deg
:documentation
   .ast/.asf automatically generated from VICON data using
   VICON BodyBuilder and BodyLanguage model FoxedUp or BRILLIANT.MOD
:root
   order TX TY TZ RX RY RZ
   axis XYZ
   position 0 0 0  
   orientation 0 0 0 
:bonedata
  begin
     id 1 
     name lhipjoint
     direction 0.61886 -0.69539 0.365302 
     length 2.20474 
     axis 0 0 0  XYZ
  end
  begin
     id 2 
     name lfemur
     direction 0.34202 -0.939693 0  
     length 6.65149  
     axis 0 0 20  XYZ
    dof rx ry rz
    limits (-160.0 20.0)
           (-70.0 70.0)
           (-60.0 70.0)
  end
  begin
     id 3 
     name ltibia
     direction 0.34202 -0.939693 0   
     length 6.35814   
     axis 0 0 20   XYZ
    dof rx
    limits (-10.0 170.0)
  end
  begin
     id 4 
     name lfoot
     direction 0.101224 -0.278109 0.955201   
     length 2.18766   
     axis -90 7.62852e-016 20   XYZ
    dof rx rz
    limits (-45.0 90.0)
           (-70.0 20.0)
  end
  begin
     id 5 
     name ltoes
     direction 1.53524e-011 -4.21877e-011 1   
     length 1.09206   
     axis -90 7.62852e-016 20   XYZ
    dof rx
    limits (-90.0 20.0)
  end
  begin
     id 6 
     name rhipjoint
     direction -0.600207 -0.708087 0.371972   
     length 2.1652  
     axis 0 0 0  XYZ 
  end
  begin
     id 7 
     name rfemur
     direction -0.34202 -0.939693 0   
     length 6.54691   
     axis 0 0 -20   XYZ
    dof rx ry rz
    limits (-160.0 20.0)
           (-70.0 70.0)
           (-70.0 60.0)
  end
  begin
     id 8 
     name rtibia
     direction -0.34202 -0.939693 0   
     length 6.37474   
     axis 0 0 -20   XYZ
    dof rx
    limits (-10.0 170.0)
 end
 begin
     id 9 
     name rfoot
     direction -0.111266 -0.3057 0.945604   
     length 2.00903  
     axis -90 -7.62852e-016 -20   XYZ
    dof rx rz
    limits (-45.0 90.0)
           (-20.0 70.0)
  end
  begin
     id 10 
     name rtoes
     direction -1.5362e-011 -4.21913e-011 1   
     length 1.00221   
     axis -90 -7.62852e-016 -20   XYZ
    dof rx
    limits (-90.0 20.0)
  end
  begin
     id 11 
     name lowerback
     direction -0.0224561 0.999731 -0.00577314   
     length 2.10409   
     axis 0 0 0   XYZ
    dof rx ry rz
    limits (-20.0 45.0)
           (-30.0 30.0)
           (-30.0 30.0)
  end
  begin
     id 12 
     name upperback
     direction 0.0213126 0.999185 -0.0342817   
     length 2.09783   
     axis 0 0 0   XYZ
    dof rx ry rz
    limits (-20.0 45.0)
           (-30.0 30.0)
           (-30.0 30.0)
  end
  begin
     id 13 
     name thorax
     direction 0.0312356 0.999036 -0.0308451   
     length 2.09788   
     axis 0 0 0   XYZ
    dof rx ry rz
    limits (-20.0 45.0)
           (-30.0 30.0)
           (-30.0 30.0)
  end
  begin
     id 14 
     name lowerneck
     direction -0.0114419 0.996481 0.0830329   
     length 1.38575   
     axis 0 0 0   XYZ
    dof rx ry rz
    limits (-20.0 45.0)
           (-30.0 30.0)
           (-30.0 30.0)
  end
  begin
     id 15 
     name upperneck
     direction -0.0075675 0.996187 -0.0869092   
     length 1.39401   
     axis 0 0 0   XYZ
    dof rx ry rz
    limits (-20.0 45.0)
           (-30.0 30.0)
           (-30.0 30.0)
  end
  begin
     id 16
     name head
     direction -0.00222073 0.999264 -0.0382974  
     length 1.3964  
     axis 0 0 0   XYZ
    dof rx ry rz
    limits (-20.0 45.0)
           (-30.0 30.0)
           (-30.0 30.0)
  end
  begin
     id 17 
     name lclavicle
     direction 0.965962 0.222138 0.132556  
     length 2.81514  
     axis 0 0 0   XYZ
    dof ry rz
    limits (-20.0 10.0)
           (0.0 20.0)
  end
  begin
     id 18 
     name lhumerus
     direction 1 -4.48972e-011 7.03471e-018   
     length 4.47366   
     axis 180 -30 -90   XYZ
    dof rx ry rz
    limits (-60.0 90.0)
           (-90.0 90.0)
           (-90.0 90.0)
  end
  begin
     id 19
     name lradius
     direction 1 -4.48951e-011 -6.22192e-028   
     length 3.19948   
     axis 180 -30 -90   XYZ
    dof rx
    limits (-10.0 170.0)
  end
  begin
     id 20
     name lwrist
     direction 1 -4.48967e-011 -1.24264e-027   
     length 1.59974   
     axis 1.40095e-015 90 90   XYZ
    dof ry
    limits (-180.0 0.0)
 end
  begin
     id 21 
     name lhand
     direction 1 -4.4897e-011 -2.48528e-027   
     length 0.492667   
     axis 1.58582e-015 90 90   XYZ
    dof rx rz
    limits (-90.0 90.0)
           (-45.0 45.0)
  end
  begin
     id 22 
     name lfingers
     direction 1 -4.48996e-011 -4.97056e-027   
     length 0.397201   
     axis 3.17164e-015 90 90   XYZ
    dof rx
    limits (0.0 90.0)
  end
  begin
     id 23
     name lthumb
     direction 0.707107 -6.34981e-011 0.707107   
     length 0.570303   
     axis -90 45 2.85299e-015   XYZ
    dof rx rz
    limits (-45.0 45.0)
           (-45.0 45.0)
  end
  begin
     id 24 
     name rclavicle
     direction -0.961164 0.229034 0.153972   
     length 3.09348  
     axis 0 0 0   XYZ 
    dof ry rz
    limits (-10.0 20.0)
           (-20.0 0.0)
  end
  begin
     id 25 
     name rhumerus
     direction -1 -4.48971e-011 -9.06263e-028  
     length 4.3269   
     axis 180 30 90   XYZ
    dof rx ry rz
    limits (-90.0 60.0)
           (-90.0 90.0)
           (-90.0 90.0)
  end
  begin
     id 26 
     name rradius
     direction -1 -4.48953e-011 1.44659e-027   
     length 3.1896   
     axis 180 30 90   XYZ
    dof rx
    limits (-10.0 170.0)
  end
  begin
     id 27 
     name rwrist
     direction -1 -4.48988e-011 -1.24264e-027   
     length 1.5948   
     axis 1.40095e-015 -90 -90   XYZ
    dof ry
    limits (-180.0 0.0)
  end
  begin
     id 28
     name rhand
     direction -1 -4.49033e-011 -2.48528e-027   
     length 0.464496   
     axis 1.58582e-015 -90 -90   XYZ
    dof rx rz
    limits (-90.0 90.0)
           (-45.0 45.0)
  end
  begin
     id 29
     name rfingers
     direction -1 -4.48905e-011 -4.97056e-027   
     length 0.374489   
     axis 3.17164e-015 -90 -90   XYZ
    dof rx
    limits (0.0 90.0)
  end
  begin
     id 30
     name rthumb
     direction -0.707107 -6.34909e-011 0.707107   
     length 0.537693   
     axis -90 -45 -2.85299e-015   XYZ
    dof rx rz
    limits (-45.0 45.0)
           (-45.0 45.0)
  end
:hierarchy
  begin
    root lhipjoint rhipjoint lowerback
    lhipjoint lfemur
    lfemur ltibia
    ltibia lfoot
    lfoot ltoes
    rhipjoint rfemur
    rfemur rtibia
    rtibia rfoot
    rfoot rtoes
    lowerback upperback
    upperback thorax
    thorax lowerneck lclavicle rclavicle
    lowerneck upperneck
    upperneck head
    lclavicle lhumerus
    lhumerus lradius
    lradius lwrist
    lwrist lhand lthumb
    lhand lfingers
    rclavicle rhumerus
    rhumerus rradius
    rradius rwrist
    rwrist rhand rthumb
    rhand rfingers
  end

#!OML:ASF G:\acrobat\cartwheel_test 2\Patient 1\Session 2\acrobat4.ASF
:FULLY-SPECIFIED
:DEGREES
225
root 4.89317 15.2048 21.2623 -168.376 -11.5832 -175.749
lowerback 5.90438 3.12767 -3.87257
upperback 1.70634 3.78183 -1.52934
thorax -1.6947 1.8406 0.314589
lowerneck -8.45597 -6.48955 -5.45892
upperneck 1.89205 -8.37386 5.21356
head 2.59428 -4.09635 2.21938
rclavicle -5.64548e-014 3.33958e-014
rhumerus -37.6792 6.87082 -85.7134
rradius 75.393
rwrist 6.93857
rhand -12.7176 -19.668
rfingers 7.12502
rthumb 13.3654 -409.219
lclavicle -5.64548e-014 3.33958e-014
lhumerus -48.6918 -17.282 79.2362
lradius 120.953
lwrist 21.0767
lhand -40.9238 -1.81924
lfingers 7.12502
lthumb -13.8582 27.6991
rfemur -15.5656 -26.277 18.3747
rtibia 67.7169
rfoot 18.0622 12.6419
rtoes -7.68588
lfemur -18.597 7.06352 -19.426
ltibia 40.5641
lfoot -213.237 200.983
ltoes -12.0971
226
root 4.88562 15.2087 21.4244 -168.289 -11.2136 -175.509
lowerback 5.70525 3.26496 -3.90444
upperback 1.64719 3.96714 -1.68843
thorax -1.64228 1.93246 0.164081
lowerneck -8.03952 -6.87635 -5.58661
upperneck 1.3509 -8.8935 5.29497
head 2.37687 -4.36615 2.25434
rclavicle -5.56597e-015 1.51076e-014
rhumerus -36.8237 8.92177 -86.7305
rradius 76.8407
rwrist 7.5142
rhand -13.1554 -19.1446
rfingers 7.12502
rthumb 12.9434 -408.723
lclavicle -5.56597e-015 1.51076e-014
lhumerus -48.6425 -15.6015 78.3677
lradius 120.835
lwrist 20.4156
lhand -38.4493 -0.544693
lfingers 7.12502
lthumb -11.4726 29.1214
rfemur -14.6259 -26.801 19.3615
rtibia 65.8679
rfoot 20.7332 11.5867
rtoes -5.26467
lfemur -19.42 6.66264 -19.4572
ltibia 40.8132
lfoot -213.554 201.211
ltoes -10.6111
227
root 4.87833 15.2136 21.5877 -168.196 -10.5802 -175.26
lowerback 5.61805 3.42237 -3.90773
upperback 1.59386 4.17191 -1.86267
thorax -1.64276 2.03334 -0.0249617
lowerneck -8.25341 -7.22598 -6.24536
upperneck 1.50066 -9.31433 5.81609
head 2.56571 -4.56482 2.5101
rclavicle 2.74323e-014 -7.63333e-014
rhumerus -36.0387 10.7585 -87.6047
rradius 78.5724
rwrist 7.68476
rhand -13.2525 -18.2864
rfingers 7.12502
rthumb 12.8498 -407.871
lclavicle 2.74323e-014 -7.63333e-014
lhumerus -48.7036 -14.3532 77.9963
lradius 120.752
lwrist 21.1748
lhand -38.562 -1.33269
lfingers 7.12502
lthumb -11.5813 28.3273
rfemur -14.1431 -27.26 20.3335
rtibia 63.8898
rfoot 18.7341 10.7738
rtoes -7.48418
lfemur -20.3861 7.02386 -19.617
ltibia 41.0711
lfoot -212.781 202.346
ltoes -13.0299
228
root 4.8767 15.2287 21.7443 -168.097 -10.0258 -175.157
lowerback 5.57862 3.50187 -4.06024
upperback 1.58896 4.25973 -2.02082
thorax -1.62765 2.07358 -0.107178
lowerneck -8.11596 -7.52274 -6.39638
upperneck 1.19907 -9.70413 5.88361
head 2.47739 -4.76542 2.54167
rclavicle 3.45885e-014 3.02153e-014
rhumerus -35.1567 12.388 -88.2952
rradius 80.2159
rwrist 7.75764
rhand -14.1513 -18.3359
rfingers 7.12502
rthumb 11.9833 -407.973
lclavicle 3.45885e-014 3.02153e-014
lhumerus -48.6469 -13.0846 77.549
lradius 120.709
lwrist 21.6558
lhand -38.4633 -1.19779
lfingers 7.12502
lthumb -11.4861 28.4675
rfemur -13.9834 -27.7295 21.2056
rtibia 61.9316
rfoot 18.4106 9.98881
rtoes -4.00779
lfemur -21.2619 7.21141 -19.8082
ltibia 41.3043
lfoot -212.463 202.792
ltoes -13.865
229
root 4.87668 15.2377 21.9037 -168.109 -9.61252 -175.167
lowerback 5.75172 3.50803 -4.18041
upperback 1.63354 4.23318 -2.2107
thorax -1.67188 2.05394 -0.242645
lowerneck -7.73094 -7.78985 -6.11664
upperneck 0.497416 -10.0925 5.63437
head 2.16027 -4.97922 2.40714
rclavicle 4.77083e-015 -1.74931e-014
rhumerus -34.3354 13.708 -88.8602
rradius 81.9054
rwrist 7.48341
rhand -14.0912 -19.7001
rfingers 7.12502
rthumb 12.0412 -409.334
lclavicle 4.77083e-015 -1.74931e-014
lhumerus -48.4772 -12.11 77.132
lradius 120.703
lwrist 21.9491
lhand -39.1569 -0.726006
lfingers 7.12502
lthumb -12.1549 28.9009
rfemur -13.9792 -27.9999 21.9074
rtibia 60.3845
rfoot 16.1947 8.21852
rtoes -9.27159
lfemur -21.9178 6.94928 -20.0051
ltibia 41.4559
lfoot -212.63 202.901
ltoes -12.7879
230
root 4.87058 15.2497 22.0619 -168.187 -9.18088 -175.068
lowerback 5.97289 3.44682 -4.11238
upperback 1.68495 4.12961 -2.33619
thorax -1.72527 1.99715 -0.412489
lowerneck -7.45825 -8.02938 -6.04965
upperneck -0.0318077 -10.4286 5.52046
head 1.94255 -5.16191 2.35581
rclavicle -1.59028e-015 3.33958e-014
rhumerus -33.6551 14.9654 -89.3171
rradius 83.6675
rwrist 7.02025
rhand -14.4355 -20.0678
rfingers 7.12502
rthumb 11.7092 -409.721
lclavicle -1.59028e-015 3.33958e-014
lhumerus -48.215 -11.2473 76.9607
lradius 120.556
lwrist 22.0628
lhand -40.2922 -0.300687
lfingers 7.12502
lthumb -13.2494 29.2582
rfemur -14.0312 -28.1525 22.5491
rtibia 59.4584
rfoot 16.2274 10.5017
rtoes -9.31084
lfemur -22.5298 6.97957 -20.1978
ltibia 41.5493
lfoot -212.067 203.832
ltoes -13.4884
231
root 4.86098 15.2748 22.2123 -168.353 -8.56812 -174.774
lowerback 6.15431 3.39073 -3.92004
upperback 1.76209 4.05309 -2.3335
thorax -1.73178 1.9556 -0.517905
lowerneck -7.27649 -8.26994 -6.34772
upperneck -0.299367 -10.7394 5.64985
head 1.86886 -5.32302 2.44308
rclavicle -3.73715e-014 7.15625e-014
rhumerus -33.0037 16.1678 -89.5877
rradius 85.3122
rwrist 6.26487
rhand -14.5049 -18.5258
rfingers 7.12502
rthumb 11.6422 -408.182
lclavicle -3.73715e-014 7.15625e-014
lhumerus -47.8849 -10.3309 77.0231
lradius 120.264
lwrist 21.9639
lhand -40.011 0.590578
lfingers 7.12502
lthumb -12.9784 30.1669
rfemur -14.1143 -28.1676 23.2568
rtibia 59.1175
rfoot 15.9039 6.45776
rtoes -17.7945
lfemur -22.8734 6.60094 -20.1104
ltibia 41.5604
lfoot -212.426 204.221
ltoes -11.1312
